# xmcd
#
# Track frame offsets: 
#        182
#        11962
#        29682
#        45052
#        67395
#        85832
#        103902
#        117132
#        134665
#        150545
#        171105
#        183452
#        199692
#        221792
#        241325
#
# Disc length: 3564 seconds
#
# Revision: 3
# Processed by: cddbd v1.5.2PL0 Copyright (c) Steve Scherf et al.
# Submitted via: ExactAudioCopy v0.99pb5
#
DISCID=d90dea0f
DTITLE=Various Artist - CD-Festival - On The Road
DYEAR=1989
DGENRE=Pop
TTITLE0=Dave Dudley - Six days on the road
TTITLE1=Randy Pie - Highway driver
TTITLE2=Eric Clapton - Tulsa time
TTITLE3=Allman Brothers Band - Ramblin' man
TTITLE4=Spotnicks - Tokins
TTITLE5=C.W. McCall - Convoy
TTITLE6=Mel Tillis - Ruby don't take your love to town
TTITLE7=Shakin' Stevens And The Sunsets - Baby Blue
TTITLE8=Everly Brothers - Following the sun
TTITLE9=Eric Burdon and The Animals - Hotel Hell
TTITLE10=Tony Sheridan - You'd better move on
TTITLE11=Godley and Creme - Save a mountain for me
TTITLE12=Bob Geldof - Night turns to day
TTITLE13=Channel 5 - Let's spend the night (in heaven)
TTITLE14=Abba - Eagle
EXTD=
EXTT0=
EXTT1=
EXTT2=
EXTT3=
EXTT4=
EXTT5=
EXTT6=
EXTT7=
EXTT8=
EXTT9=
EXTT10=
EXTT11=
EXTT12=
EXTT13=
EXTT14=
PLAYORDER=
